<svg width="18" height="16" viewBox="0 0 18 16" fill="none" xmlns="http://www.w3.org/2000/svg">
<path fill-rule="evenodd" clip-rule="evenodd" d="M17.4726 5.49518H17.2648L15.138 0.324656C15.058 0.129944 14.8641 0.00227356 14.6485 0.00227356C14.5799 0.00227356 14.5137 0.0152276 14.4526 0.0389988L10.8067 1.45686C10.5018 1.04314 10.0507 0.737983 9.52731 0.613518C9.07731 0.529969 8.6367 0.578704 8.47266 0.613518C7.50133 0.84442 6.77813 1.69751 6.77813 2.71234C6.77813 2.8153 6.78611 2.91653 6.80052 3.01576L3.15568 4.43323L3.15554 4.43337C3.02426 4.48465 2.91659 4.58612 2.86193 4.71887L0.735121 9.88941H0.527344C0.236068 9.88941 0 10.1191 0 10.4022C0 11.8966 1.2501 13.1123 2.78668 13.1123H3.91648C5.45305 13.1123 6.70317 11.8966 6.70317 10.4022C6.70317 10.1191 6.4671 9.88941 6.17583 9.88941H5.96791L4.03706 5.19511L7.19329 3.96766C7.4983 4.3814 7.94929 4.68657 8.47266 4.81087V12.9402H7.87033C6.33375 12.9402 5.09864 13.9927 5.09864 15.4872C5.09864 15.7704 5.33482 16 5.62599 16H12.4043C12.6954 16 12.9316 15.8029 12.9316 15.649V15.4866C12.9316 13.9927 11.6662 12.9402 10.1296 12.9402H9.52731V4.81087C10.4986 4.58011 11.2218 3.72701 11.2218 2.71234C11.2218 2.60924 11.2139 2.50801 11.1996 2.40879L13.7018 1.43563L12.0321 5.49518H11.8241C11.533 5.49518 11.2968 5.72475 11.2968 6.008C11.2968 7.50226 12.5469 8.71795 14.0836 8.71795H15.2133C16.7498 8.71795 18 7.50226 18 6.008C18 5.72475 17.7639 5.49518 17.4726 5.49518ZM2.78668 12.0865H3.91648C4.68745 12.0865 5.34252 11.5941 5.56622 10.9156C5.56545 10.9155 5.56474 10.9154 5.564 10.9153C5.5633 10.9152 5.56256 10.9151 5.56182 10.915H1.13681C1.36038 11.5938 2.01544 12.0865 2.78668 12.0865ZM1.87111 9.88941H4.83205L3.35151 6.29019L1.87111 9.88941ZM6.23531 14.9744H11.7949C11.5715 14.2957 10.901 13.9658 10.1298 13.9658H7.87033C7.09893 13.9658 6.45887 14.2957 6.23531 14.9744ZM7.83281 2.7122C7.83281 3.33814 8.35647 3.84722 8.99997 3.84722C9.64364 3.84722 10.1672 3.33814 10.1672 2.7122C10.1672 2.0864 9.6435 1.57719 8.99997 1.57719C8.35647 1.57719 7.83281 2.0864 7.83281 2.7122ZM16.1288 5.49518L14.6485 1.89597L13.1679 5.49518H16.1288ZM14.0836 7.69231H15.2133C15.9844 7.69231 16.6393 7.19976 16.863 6.52123C16.8616 6.5211 16.8601 6.52096 16.8586 6.52082H12.4336C12.6572 7.19952 13.3124 7.69231 14.0836 7.69231Z" fill="black"/>
</svg>
