<svg width="24" height="24" viewBox="0 0 24 24" fill="none" xmlns="http://www.w3.org/2000/svg">
<path d="M21.054 18.5604L16.5192 14.0256C17.2262 12.8653 17.5991 11.5323 17.5968 10.1736C17.5968 6.0732 14.0436 2.5212 9.94322 2.5212C8.96835 2.52104 8.00299 2.71294 7.1023 3.08593C6.2016 3.45893 5.38321 4.00571 4.69387 4.69505C4.00453 5.38439 3.45775 6.20278 3.08476 7.10348C2.71176 8.00417 2.51986 8.96953 2.52002 9.9444C2.52002 14.0436 6.07322 17.5968 10.1724 17.5968C11.4864 17.598 12.7768 17.2483 13.9104 16.584L18.4692 21.1452C18.6836 21.359 18.974 21.4791 19.2768 21.4791C19.5796 21.4791 19.87 21.359 20.0844 21.1452L21.216 20.0136C21.6612 19.5684 21.4992 19.0056 21.054 18.5604ZM4.80482 9.9444C4.80466 9.26951 4.93745 8.60121 5.19561 7.97765C5.45377 7.35409 5.83224 6.7875 6.3094 6.31023C6.78656 5.83295 7.35306 5.45435 7.97656 5.19605C8.60006 4.93775 9.26833 4.8048 9.94322 4.8048C12.7824 4.8048 15.312 7.3332 15.312 10.1736C15.3117 11.5366 14.7701 12.8437 13.8063 13.8075C12.8425 14.7713 11.5354 15.3129 10.1724 15.3132C7.33322 15.312 4.80482 12.7824 4.80482 9.9444Z" fill="black"/>
</svg>
