<svg width="210" height="134" viewBox="0 0 210 134" fill="none" xmlns="http://www.w3.org/2000/svg">
<path d="M39.65 120.614V130H41.314V121.511H41.327L43.108 130H44.382L46.163 121.498H46.176V130H47.84V120.614H44.993L43.745 126.711L42.497 120.614H39.65ZM48.5611 130H50.4721L51.0311 127.556H53.0461L53.4881 130H55.4121L53.3321 120.614H50.9401L48.5611 130ZM51.2521 126.165L52.1101 121.797L52.8251 126.165H51.2521ZM56.1539 120.614V130H57.9349V122.044H61.0809V120.614H56.1539ZM60.7486 130H62.6596L63.2186 127.556H65.2336L65.6756 130H67.5996L65.5196 120.614H63.1276L60.7486 130ZM63.4396 126.165L64.2976 121.797L65.0126 126.165H63.4396ZM69.9404 123.318C69.9404 122.473 70.3044 121.875 71.0064 121.875C71.7604 121.875 71.9944 122.564 71.9944 123.188C71.9944 124.02 71.4874 124.384 70.8244 124.384H70.4474V125.723H70.8244C71.5654 125.723 72.1244 126.126 72.1244 127.231C72.1244 128.206 71.8124 128.791 70.9544 128.791C70.0574 128.791 69.7974 128.154 69.7974 127.504H68.0684C68.0684 129.519 69.5244 130.221 71.0584 130.221C72.9174 130.221 73.9444 129.285 73.9444 127.4C73.9444 125.983 73.3074 125.216 72.3714 124.982C73.2294 124.761 73.8144 123.916 73.8144 122.941C73.8144 121.043 72.2674 120.445 71.0064 120.445C69.2384 120.445 68.2114 121.68 68.2114 123.318H69.9404ZM75.1842 120.614V130H77.1082L79.7082 123.188H79.7212C79.5392 124.033 79.5002 125.021 79.5002 126.451V130H81.1642V120.614H79.2402L76.6402 127.439H76.6272C76.7962 126.659 76.8482 125.242 76.8482 124.124V120.614H75.1842ZM84.2396 120.614H82.4586V130H84.2396V125.658H86.5926V130H88.3736V120.614H86.5926V124.228H84.2396V120.614ZM92.7926 120.614V130H94.7166L97.3166 123.188H97.3296C97.1476 124.033 97.1086 125.021 97.1086 126.451V130H98.7726V120.614H96.8486L94.2486 127.439H94.2356C94.4046 126.659 94.4566 125.242 94.4566 124.124V120.614H92.7926ZM101.848 120.614H100.067V130H101.848V125.658H104.201V130H105.982V120.614H104.201V124.228H101.848V120.614ZM112.946 123.669V123.201C112.946 121.472 111.958 120.445 110.138 120.445C108.201 120.445 107.213 121.472 107.213 123.669V127.088C107.213 128.752 107.772 130.221 110.112 130.221C112.335 130.221 112.946 128.765 112.946 127.062V126.659H111.165V127.166C111.165 128.375 110.814 128.791 110.099 128.791C109.345 128.791 109.033 128.388 109.033 127.166V123.461C109.033 122.278 109.358 121.875 110.112 121.875C110.866 121.875 111.165 122.278 111.165 123.461V123.669H112.946ZM117.759 122.044H119.969V120.614H113.768V122.044H115.978V130H117.759V122.044ZM122.63 126.178H124.19C125.711 126.178 126.686 124.904 126.686 123.357C126.686 121.849 125.737 120.614 124.216 120.614H120.849V130H122.63V126.178ZM122.63 122.005H123.527C124.424 122.005 124.866 122.499 124.866 123.383C124.866 124.28 124.424 124.787 123.527 124.787H122.63V122.005ZM127.375 120.614L129.949 128.037C129.767 128.57 129.507 128.791 129.156 128.791C128.922 128.791 128.766 128.713 128.662 128.687V130.052C128.974 130.156 129.325 130.221 129.741 130.221C130.612 130.221 131.171 129.688 131.665 128.206L134.213 120.614H132.263L130.82 125.593L129.377 120.614H127.375ZM134.966 120.614V130H136.63V121.511H136.643L138.424 130H139.698L141.479 121.498H141.492V130H143.156V120.614H140.309L139.061 126.711L137.813 120.614H134.966ZM144.463 120.614V130H149.481V128.57H146.244V125.658H149.195V124.228H146.244V122.044H149.481V120.614H144.463ZM152.375 120.614H150.594V130H152.375V125.658H154.728V130H156.509V120.614H154.728V124.228H152.375V120.614ZM161.38 122.044H163.59V120.614H157.389V122.044H159.599V130H161.38V122.044ZM163.403 130H165.314L165.873 127.556H167.888L168.33 130H170.254L168.174 120.614H165.782L163.403 130ZM166.094 126.165L166.952 121.797L167.667 126.165H166.094Z" fill="black"/>
<rect width="210" height="111" fill="#FFCC00"/>
<path d="M71.8913 42.7275C76.323 39.2838 79.9995 41.6588 84.9063 47.3398C85.4573 47.981 86.1983 47.2305 86.621 46.8648C87.039 46.4943 93.5133 40.666 93.8315 40.4C94.145 40.1198 94.525 39.5973 94.0263 39.013C92.8249 37.5269 91.6483 36.021 90.497 34.4958C81.909 23.262 113.991 15.643 109.065 15.5243C106.557 15.4578 96.4963 15.339 94.9905 15.5053C88.8963 16.1465 81.244 21.8418 77.3918 24.497C72.352 27.9455 70.471 29.969 70.1623 30.2493C68.7373 31.4938 69.9343 34.3675 67.3503 36.6333C64.619 39.0225 62.9138 37.2128 61.332 38.5998C60.5483 39.2933 58.3538 40.9367 57.7268 41.483C57.095 42.0387 56.981 42.9745 57.627 43.7203C57.627 43.7203 63.631 50.3513 64.1345 50.9403C64.6333 51.5198 65.9918 52.0232 66.8278 51.2775C67.6685 50.5365 69.8298 48.6508 70.1908 48.3183C70.5613 48.0048 69.9533 44.2285 71.8913 42.7275V42.7275ZM99.0043 45.1833C98.4343 44.523 97.7265 44.504 97.1185 45.0455L90.307 50.9925C90.044 51.2311 89.8838 51.5624 89.8599 51.9166C89.8359 52.2709 89.9503 52.6207 90.1788 52.8925L129.575 97.7278C130.497 98.787 132.093 98.8962 133.143 97.9795L137.75 94.1177C138.257 93.6712 138.568 93.0425 138.614 92.3683C138.66 91.6941 138.438 91.0289 137.997 90.5173L99.0043 45.1833ZM151.535 26.1025C151.183 23.756 149.967 24.2453 149.335 25.238C148.704 26.2403 145.911 30.4725 144.761 32.3915C143.621 34.2915 140.809 38.0488 135.575 34.339C130.122 30.4868 132.017 27.7983 132.967 25.9885C133.922 24.1693 136.852 19.0678 137.275 18.436C137.698 17.7948 137.204 15.9328 135.513 16.7118C133.817 17.4908 123.529 21.5805 122.104 27.4468C120.645 33.4128 123.324 38.747 118.066 44.0433L111.687 50.6933L118.095 58.1318L125.951 50.6742C127.823 48.7932 131.822 46.9645 135.442 47.791C143.198 49.5438 147.431 46.632 149.981 41.8155C152.271 37.512 151.891 28.449 151.535 26.1025V26.1025ZM70.0103 91.0017C69.5351 91.4804 69.2685 92.1275 69.2685 92.802C69.2685 93.4765 69.5351 94.1236 70.0103 94.6023L74.5275 99.0197C75.5155 100.012 77.083 99.5945 78.071 98.6018L101.379 75.6878L94.24 67.5462L70.0103 91.0017V91.0017Z" fill="black"/>
</svg>
